<svg width="53" height="53" viewBox="0 0 53 53" fill="none" xmlns="http://www.w3.org/2000/svg">
<g id="Group 24994" >
<path id="Vector" d="M10.3789 3.14611L19.1895 11.9649L28.0082 3.14611L36.827 11.9649L45.6376 3.14611L53.8695 11.3781L55.0432 10.2127L45.6376 0.815369L36.827 9.62589L28.0082 0.815369L19.1895 9.62589L10.3789 0.815369L0.973328 10.2127L2.14696 11.3781L10.3789 3.14611Z" fill="black"/>
<path id="Vector_2" d="M10.3789 11.9649L19.1895 20.7837L28.0082 11.9649L36.827 20.7837L45.6376 11.9649L53.8695 20.1968L55.0432 19.0315L45.6376 9.62587L36.827 18.4447L28.0082 9.62587L19.1895 18.4447L10.3789 9.62587L0.973328 19.0315L2.14696 20.1968L10.3789 11.9649Z" fill="black"/>
<path id="Vector_3" d="M10.3789 20.7837L19.1895 29.5942L28.0082 20.7837L36.827 29.5942L45.6376 20.7837L53.8695 29.0156L55.0432 27.842L45.6376 18.4446L36.827 27.2634L28.0082 18.4446L19.1895 27.2634L10.3789 18.4446L0.973328 27.842L2.14696 29.0156L10.3789 20.7837Z" fill="black"/>
<path id="Vector_4" d="M10.3789 29.5942L19.1895 38.413L28.0082 29.5942L36.827 38.413L45.6376 29.5942L53.8695 37.8262L55.0432 36.6608L45.6376 27.2635L36.827 36.074L28.0082 27.2635L19.1895 36.074L10.3789 27.2635L0.973328 36.6608L2.14696 37.8262L10.3789 29.5942Z" fill="black"/>
<path id="Vector_5" d="M10.3789 38.413L19.1895 47.2318L28.0082 38.413L36.827 47.2318L45.6376 38.413L53.8695 46.645L55.0432 45.4796L45.6376 36.074L36.827 44.8928L28.0082 36.074L19.1895 44.8928L10.3789 36.074L0.973328 45.4796L2.14696 46.645L10.3789 38.413Z" fill="black"/>
<path id="Vector_6" d="M10.3789 47.2318L19.1895 56.0423L28.0082 47.2318L36.827 56.0423L45.6376 47.2318L53.8695 55.4637L55.0432 54.2901L45.6376 44.8927L36.827 53.7115L28.0082 44.8927L19.1895 53.7115L10.3789 44.8927L0.973328 54.2901L2.14696 55.4637L10.3789 47.2318Z" fill="black"/>
</g>
</svg>
