<svg width="588" height="104" viewBox="0 0 588 104" fill="none" xmlns="http://www.w3.org/2000/svg">
<g clip-path="url(#clip0_6908_49843)">
<path d="M52.0302 7.77558C49.809 9.84564 47.6261 11.8774 45.4432 13.8995C35.3043 23.3106 25.1653 32.7313 15.0168 42.1232C12.6903 44.2795 10.2776 46.3496 7.35755 47.6146C3.88216 49.1192 1.89075 48.18 0.77058 44.4328C-0.789994 39.1906 0.0429496 34.303 3.05878 29.7987C5.62463 25.9653 8.86068 22.7739 12.1829 19.6688C17.4773 14.7237 22.8101 9.82646 28.2099 5.0155C30.5747 2.9071 33.1597 0.980804 36.3191 0.338702C45.7783 -1.56843 51.81 7.49765 52.0397 7.76599L52.0302 7.77558Z" fill="#4779FF"/>
<path d="M6.51562 55.6554C12.2696 53.9974 16.5876 50.3461 20.7906 46.503C34.1943 34.2744 47.5788 22.0361 61.04 9.87451C64.0079 7.1911 67.1291 4.6227 70.4321 2.38014C74.6352 -0.475776 79.202 -0.887871 83.7018 1.83387C85.3294 2.8114 86.9283 3.95185 88.2495 5.31272C92.8355 10.0566 97.364 14.8772 101.778 19.784C106.469 24.9974 111.084 30.2876 115.574 35.6736C117.115 37.5232 118.379 39.6795 119.423 41.8646C121.366 45.928 120.868 49.9436 118.504 53.7291C116.388 57.1217 113.554 59.9009 110.634 62.5364C99.2022 72.8675 87.7708 83.1986 76.2053 93.386C73.1033 96.1269 69.6854 98.5803 66.1621 100.746C59.5273 104.838 52.8733 104.33 46.8225 99.4812C43.2992 96.6636 39.9866 93.5106 36.9612 90.1563C27.2148 79.3556 17.6503 68.4016 8.01875 57.4954C7.53048 56.9492 7.09007 56.355 6.51562 55.6458V55.6554Z" fill="#4779FF"/>
<path d="M204.817 2.14667H219.351V80.943H204.817V74.3016C200.538 79.7834 194.449 82.5148 186.569 82.5148C178.69 82.5148 172.505 79.6397 167.134 73.8991C161.763 68.1585 159.082 61.1242 159.082 52.796C159.082 44.4679 161.763 37.4335 167.134 31.6929C172.505 25.9523 178.977 23.0773 186.569 23.0773C194.161 23.0773 200.538 25.8182 204.817 31.2904V2.13708V2.14667ZM178.058 64.2292C181.026 67.1906 184.76 68.676 189.269 68.676C193.778 68.676 197.493 67.1906 200.423 64.2292C203.353 61.2679 204.817 57.4536 204.817 52.8056C204.817 48.1575 203.353 44.3433 200.423 41.3819C197.493 38.4206 193.778 36.9352 189.269 36.9352C184.76 36.9352 181.026 38.4206 178.058 41.3819C175.09 44.3433 173.606 48.1575 173.606 52.8056C173.606 57.4536 175.09 61.2679 178.058 64.2292Z" fill="#252731"/>
<path d="M267.92 24.6586H283.469L262.932 81.0389C260.003 89.0795 256.125 94.916 251.281 98.5577C246.446 102.199 240.424 103.838 233.224 103.455V89.9516C237.13 90.0283 240.223 89.2041 242.52 87.4791C244.809 85.754 246.637 82.9748 247.987 79.1509L224.895 24.6682H240.778L255.465 62.4946L267.93 24.6682L267.92 24.6586Z" fill="#252731"/>
<path d="M320.404 23.0773C326.561 23.0773 331.654 25.1378 335.666 29.2683C339.687 33.3989 341.688 39.1011 341.688 46.3751V80.9335H327.154V48.1768C327.154 44.4296 326.139 41.5545 324.11 39.5611C322.08 37.5773 319.38 36.5806 316 36.5806C312.247 36.5806 309.241 37.7402 306.991 40.0691C304.741 42.3979 303.612 45.8863 303.612 50.5343V80.9239H289.078V24.6395H303.612V30.9455C307.144 25.6937 312.736 23.0677 320.395 23.0677L320.404 23.0773Z" fill="#252731"/>
<path d="M394.595 24.6586H409.128V80.9431H394.595V74.3016C390.239 79.7834 384.121 82.5148 376.232 82.5148C368.343 82.5148 362.282 79.6397 356.911 73.8991C351.54 68.1585 348.859 61.1242 348.859 52.796C348.859 44.4679 351.54 37.4335 356.911 31.6929C362.282 25.9524 368.716 23.0773 376.232 23.0773C384.121 23.0773 390.239 25.8182 394.595 31.2904V24.649V24.6586ZM367.778 64.2293C370.707 67.1906 374.422 68.676 378.932 68.676C383.441 68.676 387.175 67.1906 390.143 64.2293C393.111 61.2679 394.595 57.4537 394.595 52.8056C394.595 48.1576 393.111 44.3433 390.143 41.382C387.175 38.4206 383.441 36.9352 378.932 36.9352C374.422 36.9352 370.707 38.4206 367.778 41.382C364.848 44.3433 363.383 48.1576 363.383 52.8056C363.383 57.4537 364.848 61.2679 367.778 64.2293Z" fill="#252731"/>
<path d="M480.617 23.0773C487.079 23.0773 492.24 25.1761 496.107 29.3833C499.975 33.5905 501.909 39.2161 501.909 46.2696V80.9431H487.376V47.2855C487.376 43.912 486.553 41.2861 484.896 39.4077C483.24 37.5293 480.913 36.5902 477.907 36.5902C474.604 36.5902 472.029 37.6827 470.19 39.8582C468.352 42.0336 467.433 45.1866 467.433 49.3172V80.9526H452.9V47.295C452.9 43.9216 452.076 41.2957 450.42 39.4173C448.764 37.5389 446.437 36.5997 443.431 36.5997C440.204 36.5997 437.629 37.6923 435.714 39.8677C433.799 42.0432 432.842 45.1962 432.842 49.3268V80.9622H418.309V24.6777H432.842V30.6483C436.222 25.6169 441.44 23.106 448.505 23.106C455.571 23.106 460.521 25.8086 463.824 31.2138C467.577 25.8086 473.178 23.106 480.607 23.106L480.617 23.0773Z" fill="#252731"/>
<path d="M518.341 17.9022C515.938 17.9022 513.851 17.0205 512.09 15.2571C510.328 13.4937 509.438 11.4141 509.438 9.00859C509.438 6.6031 510.318 4.50429 512.09 2.70258C513.851 0.900858 515.938 0 518.341 0C520.745 0 522.937 0.900858 524.708 2.70258C526.47 4.50429 527.351 6.6031 527.351 9.00859C527.351 11.4141 526.47 13.4937 524.708 15.2571C522.947 17.0205 520.821 17.9022 518.341 17.9022ZM511.132 80.9431V24.6586H525.666V80.9431H511.132Z" fill="#252731"/>
<path d="M562.534 82.5148C554.042 82.5148 546.966 79.6684 541.299 73.9566C535.631 68.2544 532.797 61.2008 532.797 52.796C532.797 44.3912 535.631 37.3377 541.299 31.6354C546.966 25.9332 554.051 23.0773 562.534 23.0773C568.02 23.0773 573.008 24.3902 577.517 27.0161C582.027 29.642 585.445 33.1688 587.771 37.5964L575.267 44.9087C574.138 42.5799 572.434 40.7399 570.145 39.3886C567.857 38.0373 565.282 37.3664 562.429 37.3664C558.072 37.3664 554.463 38.8136 551.61 41.6982C548.757 44.5925 547.33 48.2821 547.33 52.7864C547.33 57.2907 548.757 60.875 551.61 63.7597C554.463 66.6539 558.072 68.0914 562.429 68.0914C565.358 68.0914 567.962 67.4398 570.26 66.1172C572.548 64.8043 574.262 62.9834 575.382 60.6546L588.001 67.8614C585.521 72.2891 582.027 75.835 577.527 78.4992C573.017 81.1635 568.029 82.4956 562.543 82.4956L562.534 82.5148Z" fill="#252731"/>
</g>
<defs>
<clipPath id="clip0_6908_49843">
<rect width="588" height="103.51" fill="white"/>
</clipPath>
</defs>
</svg>
